<svg width="65" height="65" viewBox="0 0 65 65" fill="none" xmlns="http://www.w3.org/2000/svg">
<rect width="65" height="65" fill="white"/>
<path d="M30.6441 11.1217C31.3159 9.44876 33.6841 9.44876 34.3559 11.1217L38.7564 22.0797C39.0424 22.7921 39.7111 23.2779 40.477 23.3298L52.2585 24.1286C54.0571 24.2506 54.789 26.503 53.4055 27.6588L44.3437 35.2301C43.7545 35.7223 43.4991 36.5083 43.6864 37.2528L46.5673 48.7045C47.0072 50.4528 45.0912 51.8449 43.5644 50.8863L33.5634 44.6076C32.9132 44.1994 32.0868 44.1994 31.4366 44.6076L21.4356 50.8863C19.9088 51.8449 17.9928 50.4528 18.4327 48.7045L21.3136 37.2528C21.5009 36.5083 21.2455 35.7223 20.6564 35.2301L11.5945 27.6588C10.211 26.503 10.9429 24.2506 12.7415 24.1286L24.523 23.3298C25.2889 23.2779 25.9576 22.7921 26.2436 22.0797L30.6441 11.1217Z" fill="#8F68FF"/>
</svg>
